Coordinates
version=1
nRows=16
nColumns=33
inDegrees=yes

Units are S.I. units (second, meters, Newtons, ...)
Angles are in degrees.

endheader
time	ground_thorax_rot_x	ground_thorax_rot_y	ground_thorax_rot_z	ground_thorax_tx	ground_thorax_ty	ground_thorax_tz	clav_prot_r	clav_elev_r	scapula_abduction_r	scapula_elevation_r	scapula_upward_rot_r	scapula_winging_r	shoulder_elv_r	plane_of_elev_r	axial_rot_r	elbow_flexion_r	pro_sup_r	wrist_flex_r	wrist_dev_r	clav_prot_l	clav_elev_l	scapula_abduction_l	scapula_elevation_l	scapula_upward_rot_l	scapula_winging_l	shoulder_elv_l	plane_of_elev_l	axial_rot_l	elbow_flexion_l	pro_sup_l	wrist_flex_l	wrist_dev_l
      5.47000000	    -90.00000000	     90.00000000	    -90.00000000	   -161.69806780	    807.40999111	     13.02716827	     29.95718260	     40.55112128	     45.00000000	     45.00000000	     10.63039732	   3215.70225038	  -1700.21038508	     23.31850981	   -157.40389922	    742.63582725	    197.75829400	      8.26155192	      3.51498384	    -45.00000000	      2.65592256	     39.07882988	    -13.13446001	    -45.00000000	  -3851.29345682	   1191.71138577	      7.79193379	   -145.19908708	   1808.67272604	     11.62713808	     12.98207176	    -19.47583772
      5.48000000	    -90.00000000	     90.00000000	    -90.00000000	   -156.73925726	    805.15864028	     13.06634699	     30.16180515	     40.57441294	     45.00000000	     45.00000000	     10.46751970	   3215.34934866	  -1700.19958305	     23.20326594	   -157.37303090	    742.46317607	    198.55361190	      8.17350138	      3.38486926	    -45.00000000	      2.85740829	     39.60838221	    -13.34770657	    -45.00000000	  -3851.18487930	   1191.34342261	      7.60447353	   -144.08266552	   1808.43255875	     12.27696231	     13.23193618	    -19.30277396
      5.49000000	    -90.00000000	     90.00000000	    -90.00000000	   -151.76541686	    802.88012922	     13.09214876	     30.35866404	     40.59767270	     45.00000000	     45.00000000	     10.31586129	   3215.04523338	  -1700.17847878	     23.07071625	   -157.32287274	    742.27712322	    199.28294247	      8.09251033	      3.23557386	    -45.00000000	      3.05848932	     40.13656843	    -13.56990970	    -45.00000000	  -3851.08036367	   1190.99576692	      7.38074955	   -143.00123645	   1808.16082520	     13.07237520	     13.46792291	    -19.14458951
      5.50000000	    -90.00000000	     90.00000000	    -90.00000000	   -146.79855536	    800.60405865	     13.10663501	     30.57599739	     40.63994256	     45.00000000	     45.00000000	     10.17472256	   3214.70484334	  -1700.14205478	     22.98543346	   -157.13519553	    742.07870881	    200.01699439	      8.01429169	      3.10497636	    -45.00000000	      3.39230856	     40.71214895	    -13.83318306	    -45.00000000	  -3850.99395364	   1190.62147123	      7.18872937	   -141.90545378	   1807.83985277	     14.03172777	     13.63922712	    -19.01644851
      5.51000000	    -90.00000000	     90.00000000	    -90.00000000	   -141.85797925	    798.35406405	     13.10484493	     30.80203860	     40.69673555	     45.00000000	     45.00000000	     10.02545915	   3214.37547187	  -1700.09298244	     22.91290161	   -156.90127627	    741.89824928	    200.77750536	      7.92750110	      2.96630741	    -45.00000000	      3.72283894	     41.30315301	    -14.13728220	    -45.00000000	  -3850.91983180	   1190.20314365	      7.02663627	   -140.82218103	   1807.50291862	     15.12661893	     13.75860234	    -18.91200772
      5.52000000	    -90.00000000	     90.00000000	    -90.00000000	   -136.95826702	    796.14805725	     13.07904185	     31.02494015	     40.75407045	     45.00000000	     45.00000000	      9.92716207	   3214.10667277	  -1700.03611170	     22.83363739	   -156.62383748	    741.67415429	    201.56066702	      7.84688064	      2.83132902	    -45.00000000	      4.06708115	     41.94545539	    -14.45723175	    -45.00000000	  -3850.89863043	   1189.88238109	      6.80974025	   -139.79209242	   1807.17926683	     16.33593712	     13.87282701	    -18.83837909
      5.53000000	    -90.00000000	     90.00000000	    -90.00000000	   -132.11215272	    793.99982595	     13.02112310	     31.23837823	     40.80779884	     45.00000000	     45.00000000	      9.79713800	   3213.81472111	  -1699.97742127	     22.71564738	   -156.31247298	    741.50730410	    202.36281835	      7.75515782	      2.69772258	    -45.00000000	      4.42037776	     42.52600043	    -14.75918149	    -45.00000000	  -3850.80283965	   1189.44512065	      6.69596558	   -138.80199088	   1806.79635827	     17.60440817	     13.97173568	    -18.76607944
      5.54000000	    -90.00000000	     90.00000000	    -90.00000000	   -127.35139349	    791.92859490	     12.93313681	     31.45421343	     40.86483239	     45.00000000	     45.00000000	      9.73307415	   3213.56667196	  -1699.92238512	     22.59513437	   -155.96475549	    741.24130405	    203.17762422	      7.68109898	      2.56933848	    -45.00000000	      4.75380200	     43.17431763	    -14.99970962	    -45.00000000	  -3850.74767585	   1189.18398248	      6.49362305	   -137.78442098	   1806.44921113	     18.92136089	     14.08042201	    -18.72621757
      5.55000000	    -90.00000000	     90.00000000	    -90.00000000	   -122.70478138	    789.95026041	     12.81895512	     31.68529816	     40.94526625	     45.00000000	     45.00000000	      9.63827576	   3213.31894370	  -1699.82403784	     22.54348775	   -155.57124398	    741.04887318	    204.06639402	      7.58133796	      2.44196928	    -45.00000000	      5.18953401	     43.86198795	    -15.39551075	    -45.00000000	  -3850.70694028	   1188.76807272	      6.37856695	   -136.62708968	   1805.90813110	     20.31026362	     14.13547934	    -18.66951827
      5.56000000	    -90.00000000	     90.00000000	    -90.00000000	   -118.21164633	    788.08437715	     12.68701839	     31.91180837	     41.02538128	     45.00000000	     45.00000000	      9.51980997	   3213.03406689	  -1699.74066123	     22.44724369	   -155.17493626	    740.82824952	    205.02717817	      7.47905756	      2.31844388	    -45.00000000	      5.67819057	     44.47623068	    -15.75075880	    -45.00000000	  -3850.69862538	   1188.33322486	      6.22866018	   -135.38380357	   1805.39100764	     21.74876956	     14.17578170	    -18.63770857
      5.57000000	    -90.00000000	     90.00000000	    -90.00000000	   -113.91489311	    786.35100271	     12.54694802	     32.11503343	     41.09147001	     45.00000000	     45.00000000	      9.43856486	   3212.82503547	  -1699.66009055	     22.36487603	   -154.75702825	    740.60931826	    206.01217642	      7.37847187	      2.20905496	    -45.00000000	      6.02579571	     45.00000000	    -16.07527965	    -45.00000000	  -3850.59212912	   1187.87688749	      6.06301825	   -134.10848085	   1804.87556271	     23.17794922	     14.23802129	    -18.61263278
      5.58000000	    -90.00000000	     90.00000000	    -90.00000000	   -109.85060486	    784.76854718	     12.40873548	     32.29836761	     41.12886019	     45.00000000	     45.00000000	      9.38694145	   3212.62932494	  -1699.54970579	     22.34066177	   -154.35614805	    740.41016102	    206.99124306	      7.27240146	      2.09289430	    -45.00000000	      6.36937560	     45.00000000	    -16.16938052	    -45.00000000	  -3849.80541707	   1187.30479281	      6.04105914	   -132.88261039	   1804.25546713	     24.54326554	     14.27959341	    -18.55307033
      5.59000000	    -90.00000000	     90.00000000	    -90.00000000	   -106.04387471	    783.35035587	     12.27520613	     32.47897336	     41.17055126	     45.00000000	     45.00000000	      9.32792453	   3212.37207501	  -1699.47143836	     22.26089789	   -154.03789521	    740.08230725	    207.98226043	      7.18523831	      1.97187648	    -45.00000000	      6.79242544	     45.00000000	    -16.19532770	    -45.00000000	  -3849.09980427	   1186.79681015	      5.99248364	   -131.57688223	   1803.72316191	     25.85118319	     14.27834529	    -18.51488051
      5.60000000	    -90.00000000	     90.00000000	    -90.00000000	   -102.50934011	    782.10688295	     12.14649063	     32.67174745	     41.25516548	     45.00000000	     45.00000000	      9.25091403	   3212.19228597	  -1699.35312059	     22.22587701	   -153.66466862	    739.91388403	    209.08420685	      7.06052503	      1.88818455	    -45.00000000	      7.04804923	     45.00000000	    -16.41699226	    -45.00000000	  -3848.55725886	   1186.11485592	      5.88281971	   -130.19668773	   1803.00083879	     27.20353258	     14.24523797	    -18.45002300
      5.61000000	    -90.00000000	     90.00000000	    -90.00000000	    -99.25865311	    781.04901207	     12.02653986	     32.83461805	     41.30277267	     45.00000000	     45.00000000	      9.19171075	   3212.00219379	  -1699.28622159	     22.14463824	   -153.36029197	    739.66828868	    210.21942068	      6.95170867	      1.81722485	    -45.00000000	      7.35035320	     45.00000000	    -16.46901573	    -45.00000000	  -3847.92032765	   1185.56889645	      5.84135933	   -128.80385997	   1802.36997796	     28.50193943	     14.20258975	    -18.40004428
      5.62000000	    -90.00000000	     90.00000000	    -90.00000000	    -96.29861447	    780.18541669	     11.92212408	     32.98119071	     41.35834518	     45.00000000	     45.00000000	      9.11267864	   3211.83608592	  -1699.21930356	     22.10540100	   -153.08149212	    739.46171236	    211.40253282	      6.83171789	      1.76013159	    -45.00000000	      7.59987647	     45.00000000	    -16.57083753	    -45.00000000	  -3847.34635954	   1185.02781957	      5.84576137	   -127.38961771	   1801.78620718	     29.72587732	     14.09923719	    -18.34094453
